<?xml version="1.0" standalone="no"?>
<!DOCTYPE svg PUBLIC "-//W3C//DTD SVG 20010904//EN"
 "http://www.w3.org/TR/2001/REC-SVG-20010904/DTD/svg10.dtd">
<svg version="1.0" xmlns="http://www.w3.org/2000/svg"
 width="100.000000pt" height="100.000000pt" viewBox="0 0 100.000000 100.000000"
 preserveAspectRatio="xMidYMid meet">
<metadata>
Created by potrace 1.11, written by Peter Selinger 2001-2013
</metadata>
<g transform="translate(0.000000,100.000000) scale(0.100000,-0.100000)"
fill="#000000" stroke="none">
<path d="M479 861 c-149 -48 -269 -157 -269 -247 0 -30 -3 -34 -25 -34 -30 0
-31 -4 -5 -45 l20 -33 -34 -6 c-44 -8 -117 -65 -145 -111 -15 -27 -21 -53 -21
-100 0 -60 2 -67 36 -100 19 -20 49 -38 65 -42 56 -11 40 -23 -30 -23 l-71 0
0 -60 0 -60 500 0 500 0 0 65 0 65 -64 0 -64 0 -8 46 c-5 25 -12 44 -16 42
-14 -6 -40 42 -30 55 17 22 19 79 4 110 -11 23 -12 32 -4 35 17 5 15 52 -3 73
-15 15 -14 17 8 23 16 4 32 21 46 48 l21 43 -40 3 c-40 3 -40 3 -40 45 0 49
-21 84 -53 89 -15 2 -23 11 -25 28 -4 30 -44 62 -82 64 -15 1 -33 6 -41 13
-19 15 -98 24 -130 14z m-244 -499 c43 9 48 -7 12 -35 -31 -23 -38 -25 -66
-14 -38 14 -39 23 -3 60 26 28 27 28 30 7 3 -17 9 -21 27 -18z"/>
</g>
</svg>
